<svg xmlns="http://www.w3.org/2000/svg" width="1200" height="40" viewBox="0 0 1200 40" role="img" aria-label="">
<style>.p{animation:p 4s linear infinite}@keyframes p{from{stroke-dashoffset:1600}to{stroke-dashoffset:0}}@media (prefers-reduced-motion:reduce){*{animation:none!important}}</style>
<path d="M0 20 L0 20.0 L6 20.6 L12 20.8 L18 20.4 L24 19.8 L30 19.3 L36 19.3 L42 19.8 L48 20.4 L54 20.8 L60 20.6 L66 20.0 L72 19.4 L78 19.2 L84 19.6 L90 20.2 L96 20.7 L102 20.7 L108 20.2 L114 19.5 L120 18.8 L126 17.9 L132 16.0 L138 12.6 L144 8.6 L150 6.4 L156 7.6 L162 11.2 L168 15.2 L174 18.3 L180 20.0 L186 20.7 L192 20.6 L198 20.0 L204 19.4 L210 19.2 L216 19.6 L222 20.2 L228 20.7 L234 20.7 L240 20.2 L246 19.6 L252 19.2 L258 19.4 L264 20.0 L270 20.6 L276 20.8 L282 20.4 L288 19.8 L294 19.3 L300 19.3 L306 19.8 L312 20.4 L318 20.8 L324 20.6 L330 20.0 L336 19.4 L342 19.2 L348 19.6 L354 20.2 L360 20.7 L366 20.7 L372 20.2 L378 19.6 L384 19.2 L390 19.4 L396 20.0 L402 20.6 L408 20.8 L414 20.3 L420 19.3 L426 17.7 L432 15.3 L438 11.7 L444 8.3 L450 6.8 L456 8.4 L462 11.9 L468 15.4 L474 17.7 L480 19.1 L486 20.2 L492 20.7 L498 20.7 L504 20.2 L510 19.5 L516 19.2 L522 19.4 L528 20.0 L534 20.6 L540 20.8 L546 20.4 L552 19.8 L558 19.3 L564 19.3 L570 19.8 L576 20.5 L582 20.8 L588 20.6 L594 20.0 L600 19.4 L606 19.2 L612 19.6 L618 20.3 L624 20.7 L630 20.7 L636 20.2 L642 19.5 L648 19.2 L654 19.4 L660 20.0 L666 20.6 L672 20.8 L678 20.4 L684 19.7 L690 19.3 L696 19.3 L702 19.8 L708 20.4 L714 20.7 L720 20.1 L726 18.4 L732 15.3 L738 11.2 L744 7.4 L750 6.3 L756 8.6 L762 12.7 L768 16.2 L774 18.0 L780 18.8 L786 19.3 L792 20.0 L798 20.6 L804 20.8 L810 20.4 L816 19.7 L822 19.3 L828 19.3 L834 19.8 L840 20.5 L846 20.8 L852 20.6 L858 20.0 L864 19.4 L870 19.2 L876 19.6 L882 20.3 L888 20.7 L894 20.7 L900 20.2 L906 19.5 L912 19.2 L918 19.4 L924 20.0 L930 20.6 L936 20.8 L942 20.4 L948 19.7 L954 19.3 L960 19.3 L966 19.8 L972 20.5 L978 20.8 L984 20.6 L990 20.0 L996 19.4 L1002 19.2 L1008 19.6 L1014 20.2 L1020 20.3 L1026 19.2 L1032 16.2 L1038 11.5 L1044 7.0 L1050 5.4 L1056 7.9 L1062 12.6 L1068 16.8 L1074 18.9 L1080 19.3 L1086 19.2 L1092 19.3 L1098 19.8 L1104 20.5 L1110 20.8 L1116 20.6 L1122 19.9 L1128 19.4 L1134 19.2 L1140 19.6 L1146 20.3 L1152 20.7 L1158 20.7 L1164 20.2 L1170 19.5 L1176 19.2 L1182 19.4 L1188 20.1 L1194 20.6 L1200 20.8" fill="none" stroke="#8d887c" stroke-opacity=".35" stroke-width="1.2"/>
<path d="M0 20 L0 20.0 L6 20.6 L12 20.8 L18 20.4 L24 19.8 L30 19.3 L36 19.3 L42 19.8 L48 20.4 L54 20.8 L60 20.6 L66 20.0 L72 19.4 L78 19.2 L84 19.6 L90 20.2 L96 20.7 L102 20.7 L108 20.2 L114 19.5 L120 18.8 L126 17.9 L132 16.0 L138 12.6 L144 8.6 L150 6.4 L156 7.6 L162 11.2 L168 15.2 L174 18.3 L180 20.0 L186 20.7 L192 20.6 L198 20.0 L204 19.4 L210 19.2 L216 19.6 L222 20.2 L228 20.7 L234 20.7 L240 20.2 L246 19.6 L252 19.2 L258 19.4 L264 20.0 L270 20.6 L276 20.8 L282 20.4 L288 19.8 L294 19.3 L300 19.3 L306 19.8 L312 20.4 L318 20.8 L324 20.6 L330 20.0 L336 19.4 L342 19.2 L348 19.6 L354 20.2 L360 20.7 L366 20.7 L372 20.2 L378 19.6 L384 19.2 L390 19.4 L396 20.0 L402 20.6 L408 20.8 L414 20.3 L420 19.3 L426 17.7 L432 15.3 L438 11.7 L444 8.3 L450 6.8 L456 8.4 L462 11.9 L468 15.4 L474 17.7 L480 19.1 L486 20.2 L492 20.7 L498 20.7 L504 20.2 L510 19.5 L516 19.2 L522 19.4 L528 20.0 L534 20.6 L540 20.8 L546 20.4 L552 19.8 L558 19.3 L564 19.3 L570 19.8 L576 20.5 L582 20.8 L588 20.6 L594 20.0 L600 19.4 L606 19.2 L612 19.6 L618 20.3 L624 20.7 L630 20.7 L636 20.2 L642 19.5 L648 19.2 L654 19.4 L660 20.0 L666 20.6 L672 20.8 L678 20.4 L684 19.7 L690 19.3 L696 19.3 L702 19.8 L708 20.4 L714 20.7 L720 20.1 L726 18.4 L732 15.3 L738 11.2 L744 7.4 L750 6.3 L756 8.6 L762 12.7 L768 16.2 L774 18.0 L780 18.8 L786 19.3 L792 20.0 L798 20.6 L804 20.8 L810 20.4 L816 19.7 L822 19.3 L828 19.3 L834 19.8 L840 20.5 L846 20.8 L852 20.6 L858 20.0 L864 19.4 L870 19.2 L876 19.6 L882 20.3 L888 20.7 L894 20.7 L900 20.2 L906 19.5 L912 19.2 L918 19.4 L924 20.0 L930 20.6 L936 20.8 L942 20.4 L948 19.7 L954 19.3 L960 19.3 L966 19.8 L972 20.5 L978 20.8 L984 20.6 L990 20.0 L996 19.4 L1002 19.2 L1008 19.6 L1014 20.2 L1020 20.3 L1026 19.2 L1032 16.2 L1038 11.5 L1044 7.0 L1050 5.4 L1056 7.9 L1062 12.6 L1068 16.8 L1074 18.9 L1080 19.3 L1086 19.2 L1092 19.3 L1098 19.8 L1104 20.5 L1110 20.8 L1116 20.6 L1122 19.9 L1128 19.4 L1134 19.2 L1140 19.6 L1146 20.3 L1152 20.7 L1158 20.7 L1164 20.2 L1170 19.5 L1176 19.2 L1182 19.4 L1188 20.1 L1194 20.6 L1200 20.8" fill="none" stroke="#ff4d2e" stroke-width="2" stroke-linecap="round" stroke-dasharray="140 1460" class="p"/>
</svg>